<svg height="512" viewBox="0 0 64 64" width="512" xmlns="http://www.w3.org/2000/svg"><g id="Electric_Motor-electronics" data-name="Electric Motor-electronics"><path d="m18 19h33v27h-33z" fill="#898890"/><path d="m3 29h8v6h-8z" fill="#e0e0e2"/><path d="m22 46h24v4h-24z" fill="#57565c"/><path d="m17 50h34v4h-34z" fill="#2d2d30"/><path d="m61 23v19a4 4 0 0 1 -4 4h-6v-27h6a4 4 0 0 1 4 4z" fill="#5aaae7"/><path d="m18 19v27h-5a2.006 2.006 0 0 1 -2-2v-23a2.006 2.006 0 0 1 2-2z" fill="#5aaae7"/><path d="m23 22h23v3h-23z" fill="#cca400"/><path d="m23 25h23v3h-23z" fill="#ffda44"/><path d="m23 39h23v3h-23z" fill="#cca400"/><path d="m23 36h23v3h-23z" fill="#ffda44"/><path d="m23 28h23v8h-23z" fill="#ffeb99"/><path d="m24 15h10v4h-10z" fill="#3e3d42"/><path d="m20 7h18v8h-18z" fill="#2488ff"/><path d="m31 4h4v3h-4z" fill="#ffda44"/><path d="m23 4h4v3h-4z" fill="#d80027"/><path d="m54 23h4v2h-4z" fill="#003f8a"/><path d="m54 27h4v2h-4z" fill="#003f8a"/><path d="m22 46h24v1h-24z" fill="#2d2d30"/><path d="m24 15h10v1h-10z" fill="#2d2d30"/><rect fill="#57a4ff" height="3" rx="1.5" width="8" x="22" y="8"/><rect fill="#78b9eb" height="2" rx="1" width="5" x="12" y="21"/><path d="m5 30h6a0 0 0 0 1 0 0v2a0 0 0 0 1 0 0h-6a1 1 0 0 1 -1-1 1 1 0 0 1 1-1z" fill="#fff"/></g></svg>